<mxfile host="app.diagrams.net" modified="2024-05-13T17:51:37.913Z" agent="Mozilla/5.0 (Windows NT 10.0; Win64; x64) AppleWebKit/537.36 (KHTML, like Gecko) Chrome/124.0.0.0 Safari/537.36 Edg/124.0.0.0" etag="ZaVUtrq4QMHgvxOKDQrp" version="24.3.1" type="github">
  <diagram name="Seite-1" id="Z_3XVYRokLttG0Zc2Pc0">
    <mxGraphModel dx="1156" dy="745" grid="1" gridSize="10" guides="1" tooltips="1" connect="1" arrows="1" fold="1" page="1" pageScale="1" pageWidth="1169" pageHeight="827" math="0" shadow="0">
      <root>
        <mxCell id="0" />
        <mxCell id="1" parent="0" />
        <mxCell id="koQeyaSBX44ioE7RnYYL-10" value="" style="group;shadow=0;" vertex="1" connectable="0" parent="1">
          <mxGeometry x="120" y="4.858983848622451" width="410" height="455.1410161513775" as="geometry" />
        </mxCell>
        <mxCell id="koQeyaSBX44ioE7RnYYL-5" value="" style="verticalLabelPosition=bottom;verticalAlign=top;html=1;shape=mxgraph.basic.partConcEllipse;fillColor=#bee0ec;strokeColor=none;startAngle=0.04886784600605999;endAngle=0.941162918054816;arcWidth=0.17;" vertex="1" parent="koQeyaSBX44ioE7RnYYL-10">
          <mxGeometry y="45.14101615137755" width="410" height="410" as="geometry" />
        </mxCell>
        <mxCell id="koQeyaSBX44ioE7RnYYL-6" value="" style="verticalLabelPosition=bottom;verticalAlign=top;html=1;shape=mxgraph.infographic.shadedTriangle;fillColor=#bee0ec;strokeColor=none;rotation=60;" vertex="1" parent="koQeyaSBX44ioE7RnYYL-10">
          <mxGeometry x="110" y="7.141016151377549" width="80" height="110" as="geometry" />
        </mxCell>
      </root>
    </mxGraphModel>
  </diagram>
</mxfile>
